HIERARCHY
ROOT Hips
{
    OFFSET 0.0 0.0 0.0
    CHANNELS 6 Xposition Yposition Zposition Zrotation Xrotation Yrotation
    JOINT LeftHipJoint
    {
        OFFSET 0.1 0.0 0.0
        CHANNELS 3 Zrotation Xrotation Yrotation
        JOINT LeftUpLeg
        {
            OFFSET 119.51910371955489 0.0 0.0
            CHANNELS 3 Zrotation Xrotation Yrotation
            JOINT LeftLeg
            {
                OFFSET 0.0 0.0 -396.3676503351334
                CHANNELS 3 Zrotation Xrotation Yrotation
                JOINT LeftFoot
                {
                    OFFSET 0.0 0.0 -388.14100510682954
                    CHANNELS 3 Zrotation Xrotation Yrotation
                    End Site
                    {
                        OFFSET 0.0 -0.1 0.0
                    }
                }
            }
        }
    }
    JOINT LowerBack
    {
        OFFSET 0.0 0.0 0.1
        CHANNELS 3 Zrotation Xrotation Yrotation
        JOINT Spine
        {
            OFFSET 0.0 0.0 218.450728959386
            CHANNELS 3 Zrotation Xrotation Yrotation
            JOINT Spine1
            {
                OFFSET 0.0 0.0 253.75762839119108
                CHANNELS 3 Zrotation Xrotation Yrotation
                JOINT LeftShoulder
                {
                    OFFSET 0.1 0.0 0.0
                    CHANNELS 3 Zrotation Xrotation Yrotation
                    JOINT LeftArm
                    {
                        OFFSET 144.2825588052999 0.0 0.0
                        CHANNELS 3 Zrotation Xrotation Yrotation
                        JOINT LeftForeArm
                        {
                            OFFSET 255.85071524952946 0.0 0.0
                            CHANNELS 3 Zrotation Xrotation Yrotation
                            JOINT LeftHand
                            {
                                OFFSET 240.35465794716652 0.0 0.0
                                CHANNELS 3 Zrotation Xrotation Yrotation
                                End Site
                                {
                                    OFFSET 0.1 0.0 0.0
                                }
                            }
                        }
                    }
                }
                JOINT Neck
                {
                    OFFSET 0.0 0.0 0.1
                    CHANNELS 3 Zrotation Xrotation Yrotation
                    JOINT Neck1
                    {
                        OFFSET 0.0 0.0 107.80101579396961
                        CHANNELS 3 Zrotation Xrotation Yrotation
                        End Site
                        {
                            OFFSET 0.0 0.0 115.92660566630953
                        }
                    }
                }
                JOINT RightShoulder
                {
                    OFFSET -0.1 0.0 0.0
                    CHANNELS 3 Zrotation Xrotation Yrotation
                    JOINT RightArm
                    {
                        OFFSET -144.2825588052999 0.0 0.0
                        CHANNELS 3 Zrotation Xrotation Yrotation
                        JOINT RightForeArm
                        {
                            OFFSET -255.85071524952946 0.0 0.0
                            CHANNELS 3 Zrotation Xrotation Yrotation
                            JOINT RightHand
                            {
                                OFFSET -240.35465794716652 0.0 0.0
                                CHANNELS 3 Zrotation Xrotation Yrotation
                                End Site
                                {
                                    OFFSET -0.1 0.0 0.0
                                }
                            }
                        }
                    }
                }
            }
        }
    }
    JOINT RightHipJoint
    {
        OFFSET -0.1 0.0 0.0
        CHANNELS 3 Zrotation Xrotation Yrotation
        JOINT RightUpLeg
        {
            OFFSET -119.51910371955489 0.0 0.0
            CHANNELS 3 Zrotation Xrotation Yrotation
            JOINT RightLeg
            {
                OFFSET 0.0 0.0 -396.3676503351334
                CHANNELS 3 Zrotation Xrotation Yrotation
                JOINT RightFoot
                {
                    OFFSET 0.0 0.0 -388.14100510682954
                    CHANNELS 3 Zrotation Xrotation Yrotation
                    End Site
                    {
                        OFFSET 0.0 -0.1 0.0
                    }
                }
            }
        }
    }
}
MOTION
Frames: 7
Frame Time: 0.03333333333333333
0.0 0.0 806.4796326021187 28.99713042348719 -5.082239759050798 5.3708511030008 0.0 0.0 1.987846675914698e-16 -0.07247947245671985 -15.553458207674057 -2.5412450567384677 -1.3985883465034816 31.72181557638523 2.0306131700483347 5.517382872562698e-33 -1.5902773407317584e-15 3.975693351829396e-16 0.0 0.0 1.987846675914698e-16 -0.024705946967334656 -5.185218104845431 2.9371843503045825 3.073965043468089 -9.82902064992442e-16 4.240854968608057e-16 0.0 0.0 0.0 -26.52929086586655 15.208895767207542 77.0614662176576 -22.11101893458316 4.248149579344105e-15 -1.3449287937773993e-14 -1.5902773407317582e-15 1.5902773407317584e-15 -8.348956038841732e-15 0.0 0.0 0.0 -14.228955222744016 1.4563756713698108 -11.458740627382078 0.0 0.0 0.0 41.27269231778499 -60.626732020481256 -0.1518739628540675 92.46773478119113 -9.3813084660745e-15 -1.7794048857287614e-14 0.0 0.0 0.0 0.0 0.0 1.987846675914698e-16 -0.03552754080270421 -6.832053290353023 -2.6837575203534736 -1.229992570807641 27.05087942173249 -0.7167199077226445 6.896728590703373e-34 -1.987846675914698e-16 3.975693351829396e-16
0.0 0.0 806.4796326021187 29.111719899015153 -5.0879144751605025 5.3370795075115325 0.0 -1.9878466759146977e-16 0.0 -0.060093743721095105 -15.561014524034096 -2.4421669864610664 -1.365611471059803 31.717150597358057 1.9136265665740206 0.0 0.0 3.975693351829396e-16 0.0 -1.9878466759146977e-16 0.0 -0.020662620826923203 -5.1851433853239355 2.965167416376651 3.102073283979695 4.1083815514218465e-15 -2.4975342457242786e-15 0.0 0.0 0.0 -26.439180464005197 15.36874729245134 77.01477186594002 -22.097528984780133 2.8846354751582687e-15 -6.474960066963338e-15 -1.1034765745125397e-32 1.5902773407317582e-15 7.951386703658791e-16 0.0 0.0 0.0 -14.270598362747943 1.4736771150351236 -11.448785183709589 0.0 0.0 0.0 41.26291499737217 -60.43624324486842 -0.027043298167996076 92.28150563383309 2.382868723333091e-15 6.700863903726024e-15 0.0 0.0 0.0 0.0 -1.9878466759146977e-16 0.0 -0.029702741840555102 -6.707891931099207 -2.6775645340750427 -1.2456591932507048 26.97361451291098 -0.6982568986908282 -1.3793457181406746e-33 -1.9878466759146977e-16 -7.951386703658791e-16
0.0 0.0 806.4796326021187 29.121757041965232 -5.104562351645716 5.326547528494801 0.0 0.0 0.0 -0.05335245786222731 -15.612287352559248 -2.378630090517974 -1.3499276389420347 31.867081672307545 1.8969774576611973 0.0 0.0 7.951386703658792e-16 0.0 0.0 0.0 -0.01852214634647914 -5.211052060296336 2.931668226378682 3.14569842747168 -9.826363983548807e-16 4.2470070242728714e-16 0.0 0.0 0.0 -26.385781653264957 15.55572432842646 77.09646673423426 -21.904828022537554 4.307282211962734e-15 1.122291640843871e-14 0.0 0.0 2.9817700138720468e-15 0.0 0.0 0.0 -14.257363456396423 1.5089310346160822 -11.432800688197867 0.0 0.0 0.0 41.27387499695679 -60.20553008713729 0.13613885983705268 92.11334886423617 -1.3740503333270667e-14 -1.324280858022344e-14 1.5902773407317582e-15 0.0 0.0 0.0 0.0 0.0 -0.02688817102594116 -6.7073860625947574 -2.625964695064654 -1.2448757922681706 27.21553176548621 -0.7816154574489529 0.0 0.0 0.0
0.0 0.0 806.4796326021187 29.21849083442902 -5.0967603090684666 5.374196587521598 0.0 0.0 -1.987846675914698e-16 -0.052719704662225274 -15.657570555564114 -2.44830732514017 -1.3983703848726747 31.929211171233234 2.0186479781228006 0.0 0.0 0.0 0.0 0.0 -1.987846675914698e-16 -0.018331557854194522 -5.225110355368704 2.8846745265276006 3.194378710383287 -2.2958389003472862e-15 3.2458067366115036e-15 0.0 0.0 0.0 -26.021516764125113 15.765402475006947 77.08682313563725 -21.90934119944409 5.666326855593724e-17 -2.9274357064301655e-16 0.0 0.0 -1.7890620083232284e-15 0.0 0.0 0.0 -14.337334595596023 1.5856765748148076 -11.38125837476888 0.0 0.0 0.0 40.9725026878875 -59.87949276577034 0.10196590440323497 91.91774550189116 -1.3416788643998662e-14 4.723170981222093e-15 -1.5902773407317584e-15 0.0 0.0 0.0 0.0 -1.987846675914698e-16 -0.02575935455025312 -6.460837702625259 -2.6794679458763606 -1.2655571466368374 27.06334420220656 -0.7966535107337581 0.0 0.0 -1.1927080055488188e-15
0.0 0.0 806.4796326021187 29.203729315194447 -5.075604721309466 5.441722004718373 0.0 0.0 0.0 -0.050582269346723024 -15.722798290898467 -2.551313968564553 -1.46355465161963 31.847476546001303 2.1561402627604167 0.0 0.0 0.0 0.0 0.0 0.0 -0.017496287239664756 -5.209826579078415 2.7997756544899066 3.2366760026409787 1.754664452475833e-15 -1.2427581886044724e-15 -6.3611093629270335e-15 0.0 0.0 -25.63792239073634 15.706999174385407 77.04981497790394 -21.855708189052564 4.401884263552631e-15 -1.4410222145774215e-14 1.0758896601497261e-31 1.5902773407317582e-15 -7.75260203606732e-15 -6.3611093629270335e-15 0.0 0.0 -14.48493690018472 1.4719317839377863 -11.356529730659128 -6.3611093629270335e-15 0.0 0.0 40.815949555700726 -59.766041974201094 0.009150504279735825 91.65070861283174 -1.3557342557416798e-14 -4.303141226644232e-15 0.0 0.0 0.0 0.0 0.0 0.0 -0.024614549014844642 -6.420665443962724 -2.70176398666292 -1.2792290684920409 27.02432798438091 -0.8810854327890044 0.0 0.0 -7.951386703658792e-16
0.0 0.0 806.4796326021187 29.31209496232014 -5.084701032985541 5.4728488661983805 0.0 0.0 -1.987846675914698e-16 -0.033345184271476265 -15.788969923676285 -2.5606338722076423 -1.5069254535584793 31.806270320919406 2.189627485141008 0.0 0.0 -3.975693351829396e-16 0.0 0.0 -1.987846675914698e-16 -0.011834101358792787 -5.201058019965231 2.749858678688462 3.2681566228372163 9.48170504339628e-16 -1.6179735216873874e-15 0.0 0.0 0.0 -25.40558735886727 15.90652058006944 76.97446964529203 -22.011956681413487 5.426782900787027e-16 -1.5285167227237915e-14 5.379448300748631e-32 2.3854160110976376e-15 -2.5842006786891076e-15 0.0 0.0 0.0 -14.624123221766432 1.4698176759698582 -11.311673190719056 0.0 0.0 0.0 40.49872971460552 -59.514567338004014 -0.07888457307087414 91.5937600085179 8.995097068272811e-15 -1.2511349481902529e-16 7.951386703658792e-16 0.0 0.0 0.0 0.0 -1.987846675914698e-16 -0.017553782150379702 -6.389626431897879 -2.74044438184599 -1.3268652684373456 26.955085879752804 -0.796454538970342 0.0 0.0 0.0
0.0 0.0 806.4796326021187 29.37752448074463 -5.169571880471032 5.499405156467735 0.0 0.0 -1.987846675914698e-16 -0.03396304106249308 -15.708051535475832 -2.5741675514239835 -1.517134718504996 31.866566542141257 2.194157444018378 0.0 0.0 3.9756933518293955e-16 0.0 0.0 -1.987846675914698e-16 -0.01190077996962377 -5.120629850615566 2.6770187039871236 3.27977519011214 1.8732579975926546e-16 -4.030952307976457e-16 0.0 0.0 3.9756933518293955e-16 -25.35476596897446 15.874197520135306 76.95383351205498 -21.875318876385702 -2.6618579959615096e-15 9.583412404486086e-15 0.0 0.0 2.1866313435061676e-15 0.0 0.0 3.9756933518293955e-16 -14.624716067263133 1.389576845273824 -11.298822569942544 0.0 0.0 3.9756933518293955e-16 40.454571941371086 -59.29682966812035 -0.017349887474300454 91.414068410303 4.442137055032669e-15 -4.553145144998527e-15 0.0 3.1805546814635168e-15 0.0 0.0 0.0 -1.987846675914698e-16 -0.017241677227632347 -6.139944160628787 -2.7593475948386366 -1.3305366281710984 26.876089573586313 -0.8564567934757832 0.0 0.0 -7.951386703658792e-16
